<svg xmlns="http://www.w3.org/2000/svg" width="1158.703" height="163.098" viewBox="0 0 1158.703 163.098">
  <path id="Path_5247" data-name="Path 5247" d="M70.057,1.768c26.3,0,48.178-18.785,58.786-40.885L127.3-39.78C116.467-19.448,101.66-8.84,80.223-8.84c-33.15,0-59.67-31.824-59.67-81.107,0-38.012,24.973-60.775,50.83-60.775,18.564,0,35.581,11.05,56.355,45.305l1.326-.663-20.332-50.167-1.326.442c.221,3.757-1.1,7.293-7.293,7.293-5.967,0-15.249-4.2-28.73-4.2-25.415,0-63.869,23.426-63.869,76.908C7.514-31.382,33.15,1.768,70.057,1.768Zm155.363,0c9.724,0,15.249-6.63,17.68-11.271l-1.105-.663c-2.431,4.2-6.409,7.956-10.166,7.956-3.536,0-5.3-2.431-5.3-7.735v-80c0-11.934-5.967-20.111-25.636-20.111-25.857,0-49.062,13.7-49.062,22.1a5.839,5.839,0,0,0,5.746,5.746c2.652,0,4.42-1.326,6.409-3.757,9.945-12.155,20.332-22.321,36.686-22.321,9.5,0,11.271,4.42,11.271,15.249V-75.8L183.43-64.311C164.2-56.576,147.407-45.526,147.407-26.3c0,17.238,11.271,28.067,29.614,28.067,12.6,0,26.3-7.293,34.918-14.586C211.939-5.083,215.917,1.768,225.42,1.768ZM179.01-.663c-11.05,0-14.807-11.492-14.807-26.078,0-15.47,2.431-28.288,19.89-35.581l27.846-11.492v58.786C202.878-7.293,189.176-.663,179.01-.663ZM301,1.768c19.448,0,34.918-11.934,34.918-33.15,0-14.365-8.84-23.2-25.857-29.835l-17.68-6.851c-17.68-6.851-23.868-13.923-23.868-23.2,0-8.177,6.188-17.017,22.321-17.017,7.514,0,26.078,2.21,40.664,34.7l1.326-.442-11.05-37.128-1.326.442c.442,3.094-2.431,4.42-5.525,4.42-7.072,0-13.481-3.757-24.089-3.757-18.122,0-28.73,11.271-28.73,26.52,0,13.481,8.177,23.426,23.647,29.393l17.9,6.851c15.47,5.967,24.752,13.481,24.752,24.752C328.406-10.166,319.345,0,301.223,0c-9.945,0-28.73-3.757-44.2-36.244L255.7-35.8,266.747,2.21l1.326-.442c-.442-2.873,2.431-4.42,5.3-4.42C282.438-2.652,289.289,1.768,301,1.768Zm101.218,0c19.006,0,32.929-10.829,39.78-32.266l-1.326-.442c-6.63,19.89-18.785,27.846-32.929,27.846-21.879,0-35.139-25.636-35.139-56.8,0-3.536,0-6.63.221-9.945h69.394c1.105-26.078-19.89-40.222-38.9-40.222-24.31,0-47.515,21-47.515,57.9C355.81-18.785,378.794,1.768,402.22,1.768Zm24.973-73.593H373.048c2.21-20.332,11.934-36.465,29.172-36.465C414.6-108.29,426.751-100.555,427.193-71.825Zm181,30.277c0-18.785-15.249-32.708-39.78-41.769l-18.343-6.851c-23.426-8.619-34.255-17.68-34.255-33.592,0-14.586,11.271-26.962,33.15-26.962,15.249,0,33.592,5.746,54.587,40.664l1.326-.663L585.65-156.247l-1.326.442c.442,5.525-3.094,7.293-7.293,7.293-6.188,0-16.8-4.2-28.067-4.2-22.984,0-41.769,13.7-41.769,36.465,0,21.879,18.785,34.7,36.686,41.327l17.9,6.63c22.984,8.4,36.465,20.995,36.465,37.57,0,16.8-15.249,30.94-35.581,30.94-11.934,0-36.023-1.989-61-48.62l-1.326.663,17.9,50.83,1.326-.442c-.442-4.641,2.21-7.293,7.293-7.293,5.967,0,19.006,6.851,36.023,6.851C583.219,2.21,608.192-12.155,608.192-41.548ZM652.834,1.768c9.724,0,17.459-7.514,20.774-14.586l-1.326-.663c-3.094,5.967-8.84,10.829-13.481,10.829s-8.177-2.431-8.177-11.492V-106.3h22.321v-1.989H650.624v-30.94H649.3v.221c0,7.293-5.083,13.26-13.26,13.26v17.459H621.01v1.989h15.028v89.726C636.038-1.547,645.1,1.768,652.834,1.768ZM788.528,0V-1.547h-.221c-10.166,0-11.934-1.547-11.934-11.05v-97.461h-1.326c-1.768,5.083-14.586,9.5-24.089,9.5h-1.326v1.547h.221c10.166,0,11.934,1.326,11.934,10.829v71.162L738.8-7.735c-6.63,2.652-13.7,5.3-18.785,5.3-5.3,0-7.735-3.315-7.735-10.608v-97.019h-1.326c-1.768,5.083-14.586,9.5-24.089,9.5h-1.326v1.547h.221c10.166,0,11.934,1.326,11.934,10.829V-13.7c0,11.492,5.3,15.47,13.7,15.47,7.514,0,15.912-2.873,28.067-7.735l22.321-9.061V0c1.768,0,3.757-.442,7.293-.442,7.293,0,10.829.442,16.354.442Zm58.786,1.768c15.691,0,27.183-8.619,33.592-14.144V0c1.768,0,3.757-.442,7.293-.442,7.293,0,10.829.442,16.354.442h3.094V-1.547h-.221c-10.166,0-11.934-1.547-11.934-11.05V-160h-1.326c-1.768,5.083-14.586,9.5-24.089,9.5h-1.326v1.547h.221c10.166,0,11.934,1.326,11.934,10.829v42.211c-6.63-5.746-17.9-14.144-33.592-14.144-18.122,0-40.664,13.7-40.664,55.913S829.192,1.768,847.314,1.768Zm0-1.989c-13.26,0-23.868-7.735-23.868-53.924s10.608-53.924,23.868-53.924c15.47,0,26.741,8.619,33.592,14.807v78.234C874.055-8.84,862.784-.221,847.314-.221ZM963.781,0V-1.547h-.221c-10.166,0-11.934-1.547-11.934-11.05v-97.461H950.3c-1.768,5.083-14.586,9.5-24.089,9.5h-1.326v1.547h.221c10.166,0,11.934,1.326,11.934,10.829V-12.6c0,9.5-1.768,11.05-11.934,11.05h-.221V0h3.094c5.525,0,9.061-.663,16.354-.663S955.162,0,960.687,0ZM944.333-130.832a10.523,10.523,0,0,0,10.829-10.608,10.707,10.707,0,0,0-10.829-10.829,10.525,10.525,0,0,0-10.608,10.829A10.34,10.34,0,0,0,944.333-130.832Zm82.875,132.6c19.006,0,32.929-10.829,39.78-32.266l-1.326-.442c-6.63,19.89-18.785,27.846-32.929,27.846-21.879,0-35.139-25.636-35.139-56.8,0-3.536,0-6.63.221-9.945h69.394c1.1-26.078-19.89-40.222-38.9-40.222-24.31,0-47.515,21-47.515,57.9C980.8-18.785,1003.782,1.768,1027.208,1.768Zm24.973-73.593H998.036c2.21-20.332,11.934-36.465,29.172-36.465C1039.584-108.29,1051.739-100.555,1052.181-71.825ZM1131.3,1.768c19.448,0,34.918-11.934,34.918-33.15,0-14.365-8.84-23.2-25.857-29.835l-17.68-6.851c-17.68-6.851-23.868-13.923-23.868-23.2,0-8.177,6.188-17.017,22.321-17.017,7.514,0,26.078,2.21,40.664,34.7l1.326-.442-11.05-37.128-1.326.442c.442,3.094-2.431,4.42-5.525,4.42-7.072,0-13.481-3.757-24.089-3.757-18.122,0-28.73,11.271-28.73,26.52,0,13.481,8.177,23.426,23.647,29.393l17.9,6.851c15.47,5.967,24.752,13.481,24.752,24.752C1158.7-10.166,1149.642,0,1131.52,0c-9.945,0-28.73-3.757-44.2-36.244l-1.326.442,11.05,38.012,1.326-.442c-.442-2.873,2.431-4.42,5.3-4.42C1112.735-2.652,1119.586,1.768,1131.3,1.768Z" transform="translate(-7.514 160.004)"/>
</svg>
