<?xml version="1.0" encoding="utf-8"?>
<!-- Generator: Adobe Illustrator 16.0.0, SVG Export Plug-In . SVG Version: 6.00 Build 0)  -->
<!DOCTYPE svg PUBLIC "-//W3C//DTD SVG 1.1//EN" "http://www.w3.org/Graphics/SVG/1.1/DTD/svg11.dtd">
<svg version="1.1" id="Layer_1" xmlns="http://www.w3.org/2000/svg" xmlns:xlink="http://www.w3.org/1999/xlink" x="0px" y="0px"
	  viewBox="0 0 309.867 71.73" enable-background="new 0 0 309.867 71.73" xml:space="preserve" fill="white">
<g>
	<path d="M0,37.334C0,16.365,14.895,3.037,31.357,3.037s31.26,13.328,31.26,34.297c0,20.971-14.797,34.396-31.26,34.396
		S0,58.305,0,37.334z M47.527,37.334c0-17.639-3.627-33.219-16.17-33.219s-16.17,15.58-16.17,33.219s3.627,33.318,16.17,33.318
		S47.527,54.973,47.527,37.334z"/>
	<path d="M116.516,70.75c-3.135,0-5.389-0.295-8.621-0.295c-2.646,0-4.215,0.295-6.371,0.295v-5.879l-10.582,3.92
		c-4.313,1.664-7.645,2.742-10.977,2.742c-4.311,0-6.859-2.352-6.859-7.545v-30.77c0-3.92-0.881-6.859-5.094-6.859h-0.393v-0.881
		h3.037c4.801,0,12.738-1.471,14.504-4.018h0.686v42.234c0,2.939,1.273,4.115,3.33,4.115c1.668,0,4.02-0.883,6.078-1.666l6.27-2.352
		V33.219c0-3.92-0.881-6.859-5.094-6.859h-0.393v-0.881h3.037c4.801,0,12.738-1.471,14.504-4.018h0.684v41.547
		c0,3.92,0.883,6.859,5.098,6.859h0.391v0.883H116.516z"/>
	<path d="M128.574,59.285V23.813h-6.762v-1.078h6.762v-7.252c8.232,0,11.76-3.234,11.76-8.623V6.467h0.881v16.268h10.191v1.078
		h-10.191v36.844c0,4.605,1.57,6.271,4.215,6.271c2.449,0,4.508-2.352,5.586-5.684l0.783,0.197
		c-1.273,5.193-5.291,10.092-12.248,10.092C133.77,71.533,128.574,68.691,128.574,59.285z"/>
	<path d="M177.965,69.867h0.391v0.883h-3.332c-3.037,0-5.291-0.295-8.523-0.295c-3.234,0-5.586,0.295-8.625,0.295h-3.332v-0.883
		h0.492c4.113,0,5.094-2.842,5.094-6.76V11.76c0-3.92-0.98-6.859-5.094-6.859h-0.492V4.018h3.039c4.898,0,12.738-1.471,14.502-4.018
		h0.686v63.107C172.77,67.025,173.75,69.867,177.965,69.867z"/>
	<path d="M202.758,70.75c-3.137,0-5.391-0.295-8.623-0.295c-3.234,0-5.488,0.295-8.623,0.295h-3.234v-0.883h0.391
		c4.215,0,5.098-2.939,5.098-6.859V33.219c0-3.92-0.883-6.859-5.098-6.859h-0.391v-0.881h3.039c4.801,0,12.738-1.471,14.5-4.018
		h0.688v41.547c0,3.92,0.883,6.859,5.096,6.859h0.393v0.883H202.758z M186.785,9.896c0-4.018,3.234-6.762,7.055-6.762
		c3.725,0,7.055,2.744,7.055,6.762c0,4.115-3.33,6.762-7.055,6.762C190.02,16.658,186.785,14.012,186.785,9.896z"/>
	<path d="M259.398,70.75c-3.137,0-5.391-0.295-8.623-0.295s-5.486,0.295-8.623,0.295h-3.234v-0.883h0.393
		c4.213,0,5.096-2.939,5.096-6.859V29.789c0-2.939-1.273-4.115-3.332-4.115c-1.666,0-4.018,0.881-6.074,1.666l-6.762,2.547v33.121
		c0,3.92,0.881,6.859,5.094,6.859h0.393v0.883h-3.232c-3.137,0-5.391-0.295-8.625-0.295s-5.488,0.295-8.623,0.295h-3.232v-0.883
		h0.391c4.215,0,5.096-2.939,5.096-6.859V33.219c0-3.92-0.881-6.859-5.096-6.859h-0.391v-0.881h3.037
		c4.801,0,12.738-1.471,14.502-4.018h0.688v7.348l11.072-4.115c4.213-1.568,7.74-2.744,11.072-2.744
		c4.313,0,6.762,2.354,6.762,7.547v33.512c0,3.92,0.883,6.859,5.096,6.859h0.393v0.883H259.398z"/>
	<path d="M266.947,47.135c0-16.463,12.348-25.186,23.029-25.186c10.975,0,19.5,7.057,19.402,18.326h-28.908
		c-0.1,1.469-0.1,1.861-0.1,2.057c0,14.307,5.881,22.832,14.699,22.832c5.391,0,11.172-3.037,13.916-11.955l0.881,0.295
		c-3.037,10.582-9.994,18.029-20.969,18.029C278.414,71.533,266.947,62.322,266.947,47.135z M289.584,22.93
		c-4.605,0-8.623,3.822-9.113,16.268h17.148C297.521,27.34,294.385,22.93,289.584,22.93z"/>
</g>
</svg>
